<svg xmlns="http://www.w3.org/2000/svg" xmlns:xlink="http://www.w3.org/1999/xlink" width="500" zoomAndPan="magnify" viewBox="0 0 375 149.999998" height="200" preserveAspectRatio="xMidYMid meet" version="1.0"><defs><g/><clipPath id="a867ed3ad8"><path d="M 120.085938 30.058594 L 172.816406 30.058594 L 172.816406 75.617188 L 120.085938 75.617188 Z M 120.085938 30.058594 " clip-rule="nonzero"/></clipPath><clipPath id="3a33e56173"><path d="M 67.847656 30.058594 L 146.941406 30.058594 L 146.941406 120.058594 L 67.847656 120.058594 Z M 67.847656 30.058594 " clip-rule="nonzero"/></clipPath><clipPath id="1ff0d90877"><path d="M 15.410156 30.058594 L 94.210938 30.058594 L 94.210938 120.058594 L 15.410156 120.058594 Z M 15.410156 30.058594 " clip-rule="nonzero"/></clipPath></defs><g clip-path="url(#a867ed3ad8)"><path fill="#ccdefc" d="M 133.464844 75.566406 L 159.683594 75.566406 L 172.816406 52.785156 L 159.683594 30.050781 L 133.464844 30.050781 L 120.332031 52.785156 L 133.464844 75.566406 " fill-opacity="1" fill-rule="nonzero"/></g><g clip-path="url(#3a33e56173)"><path fill="#83b1f6" d="M 76.148438 67.15625 L 76.144531 67.15625 L 77.03125 68.691406 L 80.980469 75.566406 L 81 75.566406 L 98.65625 106.171875 L 98.660156 106.167969 L 107.246094 121.035156 L 133.464844 121.035156 L 146.597656 98.300781 L 137.757812 83 L 137.761719 83 L 116.125 45.472656 L 107.246094 30.050781 L 80.980469 30.050781 L 67.894531 52.785156 L 76.148438 67.15625 " fill-opacity="1" fill-rule="nonzero"/></g><g clip-path="url(#1ff0d90877)"><path fill="#3c55bd" d="M 24.332031 68.261719 L 24.296875 68.28125 L 46.753906 107.296875 L 46.804688 107.265625 L 54.761719 121.035156 L 80.980469 121.035156 L 94.113281 98.300781 L 80.980469 75.566406 L 80.972656 75.566406 L 67.855469 52.851562 L 67.894531 52.785156 L 54.761719 30.050781 L 28.542969 30.050781 L 15.410156 52.785156 L 24.332031 68.261719 " fill-opacity="1" fill-rule="nonzero"/></g><g fill="#83b1f6" fill-opacity="1"><g transform="translate(183.326018, 88.852579)"><g><path d="M 11.46875 -26.59375 L 11.46875 0 L 2.59375 0 L 2.59375 -26.59375 Z M 7.046875 -40.90625 C 8.535156 -40.90625 9.753906 -40.4375 10.703125 -39.5 C 11.648438 -38.570312 12.125 -37.410156 12.125 -36.015625 C 12.125 -34.617188 11.648438 -33.453125 10.703125 -32.515625 C 9.753906 -31.585938 8.535156 -31.125 7.046875 -31.125 C 5.546875 -31.125 4.320312 -31.585938 3.375 -32.515625 C 2.425781 -33.453125 1.953125 -34.617188 1.953125 -36.015625 C 1.953125 -37.410156 2.425781 -38.570312 3.375 -39.5 C 4.320312 -40.4375 5.546875 -40.90625 7.046875 -40.90625 Z M 7.046875 -40.90625 "/></g></g></g><g fill="#83b1f6" fill-opacity="1"><g transform="translate(197.394582, 88.852579)"><g><path d="M 11.46875 -37.96875 L 11.46875 0 L 2.59375 0 L 2.59375 -37.0625 Z M 28.1875 -26.59375 L 20.65625 -14.921875 L 28.734375 0 L 18.859375 0 L 11.671875 -14.515625 L 19.3125 -26.59375 Z M 28.1875 -26.59375 "/></g></g></g><g fill="#83b1f6" fill-opacity="1"><g transform="translate(225.531728, 88.852579)"><g><path d="M 11.921875 -34.671875 L 11.921875 0 L 2.6875 0 L 2.6875 -34.671875 Z M 11.921875 -34.671875 "/></g></g></g><g fill="#83b1f6" fill-opacity="1"><g transform="translate(240.149072, 88.852579)"><g><path d="M 27.34375 -37.0625 L 27.34375 0 L 19.453125 0 L 19.109375 -2.9375 C 18.304688 -1.8125 17.28125 -0.890625 16.03125 -0.171875 C 14.789062 0.535156 13.304688 0.890625 11.578125 0.890625 C 8.242188 0.890625 5.726562 -0.367188 4.03125 -2.890625 C 2.34375 -5.421875 1.5 -8.914062 1.5 -13.375 C 1.5 -16.101562 1.953125 -18.535156 2.859375 -20.671875 C 3.773438 -22.816406 5.066406 -24.488281 6.734375 -25.6875 C 8.398438 -26.882812 10.3125 -27.484375 12.46875 -27.484375 C 14.863281 -27.484375 16.859375 -26.71875 18.453125 -25.1875 L 18.453125 -37.96875 Z M 14.46875 -5.484375 C 16.0625 -5.484375 17.390625 -6.363281 18.453125 -8.125 L 18.453125 -19.25 C 17.890625 -19.882812 17.34375 -20.351562 16.8125 -20.65625 C 16.28125 -20.957031 15.664062 -21.109375 14.96875 -21.109375 C 13.632812 -21.109375 12.578125 -20.484375 11.796875 -19.234375 C 11.015625 -17.984375 10.625 -16.015625 10.625 -13.328125 C 10.625 -10.328125 10.957031 -8.269531 11.625 -7.15625 C 12.289062 -6.039062 13.238281 -5.484375 14.46875 -5.484375 Z M 14.46875 -5.484375 "/></g></g></g><g fill="#83b1f6" fill-opacity="1"><g transform="translate(270.082196, 88.852579)"><g><path d="M 26.6875 -13.71875 C 26.6875 -13.519531 26.640625 -12.519531 26.546875 -10.71875 L 10.28125 -10.71875 C 10.507812 -8.695312 11.082031 -7.3125 12 -6.5625 C 12.914062 -5.8125 14.222656 -5.4375 15.921875 -5.4375 C 16.910156 -5.4375 17.894531 -5.625 18.875 -6 C 19.863281 -6.382812 20.9375 -6.976562 22.09375 -7.78125 L 25.6875 -2.890625 C 24.289062 -1.722656 22.691406 -0.800781 20.890625 -0.125 C 19.097656 0.550781 17.15625 0.890625 15.0625 0.890625 C 10.539062 0.890625 7.109375 -0.378906 4.765625 -2.921875 C 2.421875 -5.460938 1.25 -8.878906 1.25 -13.171875 C 1.25 -15.867188 1.738281 -18.296875 2.71875 -20.453125 C 3.695312 -22.617188 5.148438 -24.332031 7.078125 -25.59375 C 9.015625 -26.851562 11.34375 -27.484375 14.0625 -27.484375 C 17.957031 -27.484375 21.035156 -26.273438 23.296875 -23.859375 C 25.554688 -21.453125 26.6875 -18.070312 26.6875 -13.71875 Z M 17.953125 -16.21875 C 17.921875 -17.976562 17.625 -19.335938 17.0625 -20.296875 C 16.5 -21.265625 15.550781 -21.75 14.21875 -21.75 C 12.988281 -21.75 12.054688 -21.316406 11.421875 -20.453125 C 10.796875 -19.585938 10.398438 -18.078125 10.234375 -15.921875 L 17.953125 -15.921875 Z M 17.953125 -16.21875 "/></g></g></g><g fill="#83b1f6" fill-opacity="1"><g transform="translate(297.770339, 88.852579)"><g><path d="M 24.640625 -8.1875 C 24.640625 -7.21875 24.765625 -6.5 25.015625 -6.03125 C 25.265625 -5.570312 25.707031 -5.222656 26.34375 -4.984375 L 24.546875 0.75 C 22.847656 0.613281 21.457031 0.265625 20.375 -0.296875 C 19.300781 -0.859375 18.429688 -1.757812 17.765625 -3 C 16.066406 -0.40625 13.390625 0.890625 9.734375 0.890625 C 7.097656 0.890625 4.988281 0.117188 3.40625 -1.421875 C 1.832031 -2.960938 1.046875 -4.96875 1.046875 -7.4375 C 1.046875 -10.363281 2.125 -12.609375 4.28125 -14.171875 C 6.445312 -15.734375 9.578125 -16.515625 13.671875 -16.515625 L 15.96875 -16.515625 L 15.96875 -17.40625 C 15.96875 -18.84375 15.664062 -19.816406 15.0625 -20.328125 C 14.46875 -20.847656 13.390625 -21.109375 11.828125 -21.109375 C 10.992188 -21.109375 9.953125 -20.984375 8.703125 -20.734375 C 7.453125 -20.484375 6.179688 -20.140625 4.890625 -19.703125 L 2.9375 -25.4375 C 4.539062 -26.101562 6.253906 -26.609375 8.078125 -26.953125 C 9.910156 -27.304688 11.609375 -27.484375 13.171875 -27.484375 C 17.160156 -27.484375 20.066406 -26.691406 21.890625 -25.109375 C 23.722656 -23.535156 24.640625 -21.117188 24.640625 -17.859375 Z M 12.421875 -5.34375 C 13.148438 -5.34375 13.820312 -5.53125 14.4375 -5.90625 C 15.050781 -6.289062 15.5625 -6.816406 15.96875 -7.484375 L 15.96875 -11.78125 L 14.46875 -11.78125 C 12.875 -11.78125 11.691406 -11.488281 10.921875 -10.90625 C 10.160156 -10.320312 9.78125 -9.445312 9.78125 -8.28125 C 9.78125 -7.382812 10.007812 -6.671875 10.46875 -6.140625 C 10.9375 -5.609375 11.585938 -5.34375 12.421875 -5.34375 Z M 12.421875 -5.34375 "/></g></g></g><g fill="#83b1f6" fill-opacity="1"><g transform="translate(325.20905, 88.852579)"><g><path d="M 12.625 -27.484375 C 14.550781 -27.484375 16.382812 -27.179688 18.125 -26.578125 C 19.875 -25.984375 21.363281 -25.171875 22.59375 -24.140625 L 19.40625 -19.25 C 17.28125 -20.582031 15.132812 -21.25 12.96875 -21.25 C 12.039062 -21.25 11.351562 -21.109375 10.90625 -20.828125 C 10.457031 -20.546875 10.234375 -20.15625 10.234375 -19.65625 C 10.234375 -19.226562 10.347656 -18.878906 10.578125 -18.609375 C 10.804688 -18.335938 11.296875 -18.046875 12.046875 -17.734375 C 12.796875 -17.421875 13.984375 -17.015625 15.609375 -16.515625 C 18.335938 -15.710938 20.347656 -14.671875 21.640625 -13.390625 C 22.941406 -12.109375 23.59375 -10.320312 23.59375 -8.03125 C 23.59375 -6.238281 23.066406 -4.664062 22.015625 -3.3125 C 20.972656 -1.96875 19.53125 -0.929688 17.6875 -0.203125 C 15.84375 0.523438 13.753906 0.890625 11.421875 0.890625 C 9.160156 0.890625 7.039062 0.535156 5.0625 -0.171875 C 3.082031 -0.890625 1.410156 -1.878906 0.046875 -3.140625 L 4.296875 -7.875 C 5.328125 -7.082031 6.429688 -6.453125 7.609375 -5.984375 C 8.785156 -5.515625 9.972656 -5.28125 11.171875 -5.28125 C 12.234375 -5.28125 13.054688 -5.457031 13.640625 -5.8125 C 14.222656 -6.164062 14.515625 -6.691406 14.515625 -7.390625 C 14.515625 -7.921875 14.390625 -8.332031 14.140625 -8.625 C 13.890625 -8.925781 13.414062 -9.21875 12.71875 -9.5 C 12.019531 -9.78125 10.820312 -10.171875 9.125 -10.671875 C 3.96875 -12.203125 1.390625 -15.015625 1.390625 -19.109375 C 1.390625 -20.671875 1.835938 -22.09375 2.734375 -23.375 C 3.640625 -24.65625 4.929688 -25.660156 6.609375 -26.390625 C 8.285156 -27.117188 10.289062 -27.484375 12.625 -27.484375 Z M 12.625 -27.484375 "/></g></g></g></svg>